# Blender 3.4.1
# www.blender.org

o Gem11
v 0.000000 0.500000 0.250000
v -0.500000 0.000000 -0.000000
v 0.500000 0.000000 -0.000000
v -0.500000 1.000000 0.000000
v 0.500000 1.000000 0.000000
v 0.000000 0.500000 -0.250000
vn -0.4472 -0.0000 0.8944
vn -0.0000 -0.4472 0.8944
vn 0.4472 -0.0000 0.8944
vn -0.0000 0.4472 0.8944
vn -0.4472 -0.0000 -0.8944
vn -0.0000 -0.4472 -0.8944
vn 0.4472 -0.0000 -0.8944
vn -0.0000 0.4472 -0.8944
vt 0.415518 0.248788
vt 0.338814 0.006097
vt 0.492222 0.006097
vt 0.338814 0.491479
vt 0.492222 0.491479
vt 0.415518 0.248788
s 0
usemtl Material
f 2/2/1 1/1/1 4/4/1
f 3/3/2 1/1/2 2/2/2
f 5/5/3 1/1/3 3/3/3
f 4/4/4 1/1/4 5/5/4
f 2/2/5 4/4/5 6/6/5
f 3/3/6 2/2/6 6/6/6
f 5/5/7 3/3/7 6/6/7
f 4/4/8 5/5/8 6/6/8
