# Blender 3.4.1
# www.blender.org

o Gem1
v 0.000000 1.000000 -0.530675
v -0.480000 1.000000 -0.163988
v -0.296656 1.000000 0.429325
v 0.296656 1.000000 0.429325
v 0.480000 1.000000 -0.163988
v -0.000000 0.800000 -0.663344
v -0.600000 0.800000 -0.204984
v -0.370820 0.800000 0.536656
v 0.370820 0.800000 0.536656
v 0.600000 0.800000 -0.204985
v 0.000000 0.000000 0.000000
vn -0.0000 1.0000 -0.0000
vn 0.8044 -0.5396 0.2486
vn -0.8502 0.4563 0.2627
vn 0.5370 0.4663 -0.7030
vn -0.0000 0.4729 0.8811
vn -0.5370 0.4663 -0.7030
vn 0.8502 0.4563 0.2627
vn -0.8044 -0.5396 0.2486
vn 0.5069 -0.5502 -0.6636
vn -0.0000 -0.5571 0.8305
vn -0.5069 -0.5502 -0.6636
vt 0.250000 0.996094
vt 0.192708 0.996094
vt 0.213542 0.996094
vt 0.286458 0.996094
vt 0.307292 0.996094
vt 0.250000 0.898438
vt 0.171875 0.898438
vt 0.203125 0.898438
vt 0.296875 0.898438
vt 0.328125 0.898438
vt 0.250000 0.503906
s 0
usemtl Material
f 1/1/1 2/2/1 3/3/1 4/4/1 5/5/1
f 9/9/2 11/11/2 10/10/2
f 2/2/3 7/7/3 8/8/3 3/3/3
f 5/5/4 10/10/4 6/6/4 1/1/4
f 3/3/5 8/8/5 9/9/5 4/4/5
f 1/1/6 6/6/6 7/7/6 2/2/6
f 4/4/7 9/9/7 10/10/7 5/5/7
f 7/7/8 11/11/8 8/8/8
f 10/10/9 11/11/9 6/6/9
f 8/8/10 11/11/10 9/9/10
f 6/6/11 11/11/11 7/7/11
