# Blender 3.4.1
# www.blender.org

o Gem5
v 0.000000 0.666667 -0.500000
v -0.166667 0.500000 -0.500000
v 0.166667 0.500000 -0.500000
v 0.000000 0.333333 -0.500000
v 0.500000 0.500000 -0.166667
v 0.500000 0.666667 0.000000
v 0.500000 0.500000 0.166667
v 0.500000 0.333333 0.000000
v -0.166667 0.500000 0.500000
v 0.000000 0.333333 0.500000
v 0.166667 0.500000 0.500000
v 0.000000 0.666667 0.500000
v -0.500000 0.500000 -0.166667
v -0.500000 0.333333 0.000000
v -0.500000 0.666667 0.000000
v -0.500000 0.500000 0.166667
v 0.166667 1.000000 0.000000
v 0.000000 1.000000 0.166667
v 0.000000 1.000000 -0.166667
v -0.166667 1.000000 0.000000
v -0.166667 0.000000 0.000000
v 0.000000 0.000000 0.166667
v 0.166667 0.000000 0.000000
v 0.000000 0.000000 -0.166667
vn -0.0000 -0.0000 -1.0000
vn -0.5774 0.5774 -0.5774
vn 1.0000 -0.0000 -0.0000
vn 0.5774 0.5774 -0.5774
vn 0.5774 0.5774 0.5774
vn -0.0000 -0.0000 1.0000
vn -1.0000 -0.0000 -0.0000
vn -0.5774 0.5774 0.5774
vn -0.0000 1.0000 -0.0000
vn -0.5774 -0.5774 -0.5774
vn 0.5774 -0.5774 0.5774
vn 0.5774 -0.5774 -0.5774
vn -0.5774 -0.5774 0.5774
vn -0.0000 -1.0000 -0.0000
vt 0.751090 0.832857
vt 0.724809 0.751956
vt 0.777372 0.751956
vt 0.751090 0.671055
vt 0.829934 0.751956
vt 0.829934 0.832857
vt 0.829934 0.751956
vt 0.829934 0.671055
vt 0.724809 0.751956
vt 0.751090 0.671055
vt 0.777372 0.751956
vt 0.751090 0.832857
vt 0.672246 0.751956
vt 0.672246 0.671055
vt 0.672246 0.832857
vt 0.672246 0.751956
vt 0.777372 0.994659
vt 0.751090 0.994659
vt 0.751090 0.994659
vt 0.724809 0.994659
vt 0.724809 0.509254
vt 0.751090 0.509254
vt 0.777372 0.509254
vt 0.751090 0.509254
s 0
usemtl Material
f 3/3/1 4/4/1 2/2/1 1/1/1
f 1/1/2 2/2/2 13/13/2 15/15/2 20/20/2 19/19/2
f 7/7/3 8/8/3 5/5/3 6/6/3
f 6/6/4 5/5/4 3/3/4 1/1/4 19/19/4 17/17/4
f 12/12/5 11/11/5 7/7/5 6/6/5 17/17/5 18/18/5
f 9/9/6 10/10/6 11/11/6 12/12/6
f 13/13/7 14/14/7 16/16/7 15/15/7
f 15/15/8 16/16/8 9/9/8 12/12/8 18/18/8 20/20/8
f 20/20/9 18/18/9 17/17/9 19/19/9
f 24/24/10 21/21/10 14/14/10 13/13/10 2/2/10 4/4/10
f 22/22/11 23/23/11 8/8/11 7/7/11 11/11/11 10/10/11
f 23/23/12 24/24/12 4/4/12 3/3/12 5/5/12 8/8/12
f 21/21/13 22/22/13 10/10/13 9/9/13 16/16/13 14/14/13
f 24/24/14 23/23/14 22/22/14 21/21/14
