# Blender 3.4.1
# www.blender.org

o Gem8
v 0.166667 0.259662 0.125000
v 0.166667 0.398551 0.125000
v 0.083333 0.204106 0.125000
v -0.166667 0.259662 0.125000
v -0.166667 0.398551 0.125000
v -0.083333 0.204106 0.125000
v 0.000000 0.676328 0.125000
v 0.000000 0.259662 0.125000
v 0.166667 0.259662 -0.125000
v 0.166667 0.398551 -0.125000
v 0.083333 0.204106 -0.125000
v 0.375000 0.259662 -0.000000
v 0.375000 0.398551 0.000000
v 0.166667 0.009662 -0.000000
v -0.166667 0.259662 -0.125000
v -0.166667 0.398551 -0.125000
v -0.083333 0.204106 -0.125000
v 0.000000 1.009662 0.000000
v -0.375000 0.259662 -0.000000
v -0.375000 0.398551 0.000000
v -0.166667 0.009662 -0.000000
v 0.000000 0.676328 -0.125000
v 0.000000 0.259662 -0.125000
vn 0.5145 -0.0000 0.8575
vn -0.5145 -0.0000 0.8575
vn 0.4951 0.3017 0.8148
vn -0.0000 -0.5408 0.8412
vn 0.4243 -0.4050 0.8099
vn -0.4243 -0.4050 0.8099
vn -0.0000 -0.0000 1.0000
vn -0.4951 0.3017 0.8148
vn 0.5145 -0.0000 -0.8575
vn -0.5145 -0.0000 -0.8575
vn 0.4951 0.3017 -0.8148
vn -0.0000 -0.5408 -0.8412
vn 0.4243 -0.4050 -0.8099
vn -0.4243 -0.4050 -0.8099
vn -0.0000 -0.0000 -1.0000
vn -0.4951 0.3017 -0.8148
vt 0.784483 0.125134
vt 0.784483 0.193125
vt 0.767449 0.097938
vt 0.716345 0.125134
vt 0.716345 0.193125
vt 0.733380 0.097938
vt 0.750414 0.329107
vt 0.750414 0.125134
vt 0.784483 0.125134
vt 0.784483 0.193125
vt 0.767449 0.097938
vt 0.827069 0.125134
vt 0.827069 0.193125
vt 0.784483 0.002750
vt 0.716345 0.125134
vt 0.716345 0.193125
vt 0.733380 0.097938
vt 0.750414 0.492286
vt 0.673759 0.125134
vt 0.673759 0.193125
vt 0.716345 0.002750
vt 0.750414 0.329107
vt 0.750414 0.125134
s 0
usemtl Material
f 2/2/1 1/1/1 12/12/1 13/13/1
f 5/5/2 20/20/2 19/19/2 4/4/2
f 2/2/3 13/13/3 18/18/3 7/7/3
f 14/14/4 3/3/4 6/6/4 21/21/4
f 1/1/5 3/3/5 14/14/5 12/12/5
f 4/4/6 19/19/6 21/21/6 6/6/6
f 7/7/7 5/5/7 4/4/7 8/8/7
f 5/5/8 7/7/8 18/18/8 20/20/8
f 2/2/7 7/7/7 8/8/7 1/1/7
f 6/6/7 3/3/7 1/1/7 8/8/7 4/4/7
f 10/10/9 13/13/9 12/12/9 9/9/9
f 16/16/10 15/15/10 19/19/10 20/20/10
f 10/10/11 22/22/11 18/18/11 13/13/11
f 14/14/12 21/21/12 17/17/12 11/11/12
f 9/9/13 12/12/13 14/14/13 11/11/13
f 15/15/14 17/17/14 21/21/14 19/19/14
f 22/22/15 23/23/15 15/15/15 16/16/15
f 16/16/16 20/20/16 18/18/16 22/22/16
f 10/10/15 9/9/15 23/23/15 22/22/15
f 17/17/15 15/15/15 23/23/15 9/9/15 11/11/15
